<svg xmlns="http://www.w3.org/2000/svg" width="240" height="58" fill="none"><path fill="#fff" d="M7.325 42.489 0 15.484h4.805l5.629 20.74 6.032-20.742 4.479.002 6.053 20.851 5.654-20.846 4.805-.007-7.329 27.002-5.57-.006-5.85-20.167-5.858 20.172-5.525.006ZM40.771 15.498h4.574V42.47h-4.574V15.498ZM55.125 38.24H66.26v4.231H50.645V15.498h4.48V38.24ZM80.33 15.529c3.754 0 6.877 1.306 9.338 3.889C92.16 22 93.42 25.204 93.42 29c0 3.764-1.261 6.969-3.754 9.582-2.46 2.582-5.583 3.889-9.337 3.889H69.573V15.498H80.33v.03Zm0 22.742c2.587 0 4.7-.871 6.278-2.613 1.64-1.742 2.46-3.983 2.46-6.627 0-2.707-.82-4.884-2.46-6.627-1.61-1.742-3.723-2.613-6.278-2.613h-6.246v18.48h6.246ZM117.554 34.766c0 2.21-.788 4.046-2.397 5.509-1.609 1.463-3.502 2.21-5.836 2.21H97.617V15.498h10.852c2.24 0 4.132.747 5.678 2.147 1.578 1.432 2.335 3.207 2.335 5.323 0 2.366-.947 4.171-2.776 5.51 2.397 1.245 3.848 3.486 3.848 6.288Zm-15.426-15.097v7.097h6.372c1.988 0 3.502-1.557 3.502-3.549s-1.514-3.548-3.502-3.548h-6.372Zm7.224 18.645c2.082 0 3.723-1.65 3.723-3.766 0-2.117-1.641-3.767-3.723-3.767h-7.224v7.564h7.224v-.031ZM126.292 38.252h12.114v4.233h-16.593V15.498h16.404v4.233h-11.925v7.004h10.947v4.202h-10.947v7.315ZM158.028 42.485l-5.805-9.836h-5.3v9.836h-4.479V15.498h10.946c2.461 0 4.543.84 6.215 2.552 1.703 1.65 2.587 3.704 2.587 6.132 0 3.424-2.177 6.568-5.426 7.813l6.214 10.49h-4.952Zm-11.105-22.816v9.027h6.436c2.397 0 4.29-1.993 4.29-4.514 0-2.49-1.924-4.513-4.29-4.513h-6.436ZM181.971 42.485l-5.773-9.841h-5.3v9.841h-4.479V15.484h10.946c2.461 0 4.543.84 6.215 2.554 1.703 1.65 2.587 3.706 2.587 6.135 0 3.426-2.177 6.571-5.426 7.817l6.214 10.495h-4.984Zm-11.073-22.828v9.032h6.436c2.397 0 4.29-1.994 4.29-4.516 0-2.492-1.924-4.516-4.29-4.516h-6.436ZM190.236 15.487h4.48v26.998h-4.48V15.487ZM204.495 38.252h12.114v4.233h-16.594V15.498h16.404v4.233h-11.924v7.004h10.946v4.202h-10.946v7.315ZM219.732 36.342l3.88-2.24c1.104 3.05 3.344 4.542 6.782 4.542 3.407 0 5.079-1.43 5.079-3.546 0-1.12-.473-1.93-1.356-2.49-.884-.59-2.524-1.244-4.858-1.928-2.619-.778-3.912-1.276-5.742-2.458-1.766-1.244-2.65-3.018-2.65-5.444 0-2.396.852-4.262 2.587-5.662 1.704-1.432 3.786-2.116 6.215-2.116 4.385 0 7.76 2.24 9.527 5.942l-3.786 2.147c-1.136-2.489-3.06-3.765-5.741-3.765-2.619 0-4.291 1.307-4.291 3.36 0 1.992 1.325 2.925 5.521 4.2 1.041.343 1.798.592 2.271.778.505.156 1.167.436 2.019.778.884.342 1.578.747 1.988 1.089 1.451 1.12 2.996 2.955 2.807 5.538 0 2.426-.883 4.386-2.681 5.817C235.536 42.316 233.202 43 230.3 43c-5.3-.031-9.149-2.52-10.568-6.658Z"/></svg>