<svg width="27" height="27" viewBox="0 0 27 27" fill="none" xmlns="http://www.w3.org/2000/svg">
<path d="M24.6607 25.8722L23.0178 7.57532C22.9729 7.07565 22.5541 6.69292 22.0525 6.69292H18.6644V5.16483C18.6644 2.31694 16.3476 0 13.4998 0C10.6522 0 8.33565 2.31694 8.33565 5.16483V6.69292H4.94519C4.44358 6.69292 4.02479 7.07565 3.97996 7.57532L2.33054 25.9442C2.30624 26.2153 2.39695 26.4839 2.58056 26.6847C2.76418 26.8855 3.02377 26.9999 3.29577 26.9999H23.7021C23.7029 26.9999 23.7039 26.9999 23.7047 26.9999C24.24 26.9999 24.6738 26.566 24.6738 26.0308C24.6736 25.9769 24.6693 25.9238 24.6607 25.8722ZM10.2739 5.16483C10.2739 3.38568 11.7211 1.93822 13.5 1.93822C15.279 1.93822 16.7263 3.38568 16.7263 5.16483V6.69292H10.2739V5.16483ZM4.35584 25.0618L5.83121 8.63113H8.33565V10.3642C8.33565 10.8994 8.76942 11.3333 9.30475 11.3333C9.84009 11.3333 10.2739 10.8994 10.2739 10.3642V8.63113H16.7263V10.3642C16.7263 10.8994 17.1601 11.3333 17.6954 11.3333C18.2308 11.3333 18.6645 10.8994 18.6645 10.3642V8.63113H21.1666L22.642 25.0618H4.35584Z" fill="white"/>
</svg>
