<svg width="31" height="35" viewBox="0 0 31 35" fill="none" xmlns="http://www.w3.org/2000/svg">
<g filter="url(#filter0_d_40_4)">
<path d="M26.6606 25.8722L25.0176 7.57532C24.9728 7.07565 24.554 6.69292 24.0524 6.69292H20.6643V5.16483C20.6643 2.31694 18.3475 0 15.4997 0C12.6521 0 10.3355 2.31694 10.3355 5.16483V6.69292H6.94507C6.44346 6.69292 6.02467 7.07565 5.97984 7.57532L4.33041 25.9442C4.30612 26.2153 4.39683 26.4839 4.58044 26.6847C4.76406 26.8855 5.02365 26.9999 5.29564 26.9999H25.702C25.7027 26.9999 25.7038 26.9999 25.7045 26.9999C26.2399 26.9999 26.6737 26.566 26.6737 26.0308C26.6735 25.9769 26.6691 25.9238 26.6606 25.8722ZM12.2737 5.16483C12.2737 3.38568 13.7209 1.93822 15.4998 1.93822C17.2789 1.93822 18.7262 3.38568 18.7262 5.16483V6.69292H12.2737V5.16483ZM6.35572 25.0618L7.83109 8.63113H10.3355V10.3642C10.3355 10.8994 10.7693 11.3333 11.3046 11.3333C11.84 11.3333 12.2737 10.8994 12.2737 10.3642V8.63113H18.7262V10.3642C18.7262 10.8994 19.16 11.3333 19.6953 11.3333C20.2306 11.3333 20.6644 10.8994 20.6644 10.3642V8.63113H23.1665L24.6419 25.0618H6.35572Z" fill="#428DFF"/>
</g>
<defs>
<filter id="filter0_d_40_4" x="-2" y="0" width="35" height="35" filterUnits="userSpaceOnUse" color-interpolation-filters="sRGB">
<feFlood flood-opacity="0" result="BackgroundImageFix"/>
<feColorMatrix in="SourceAlpha" type="matrix" values="0 0 0 0 0 0 0 0 0 0 0 0 0 0 0 0 0 0 127 0" result="hardAlpha"/>
<feOffset dy="4"/>
<feGaussianBlur stdDeviation="2"/>
<feComposite in2="hardAlpha" operator="out"/>
<feColorMatrix type="matrix" values="0 0 0 0 0 0 0 0 0 0 0 0 0 0 0 0 0 0 0.25 0"/>
<feBlend mode="normal" in2="BackgroundImageFix" result="effect1_dropShadow_40_4"/>
<feBlend mode="normal" in="SourceGraphic" in2="effect1_dropShadow_40_4" result="shape"/>
</filter>
</defs>
</svg>
